<svg viewBox="0 0 20 20" color="#EEF7FC" xmlns="http://www.w3.org/2000/svg">
    <g clip-path="url(#clip0_1_3748)">
        <path fill-rule="evenodd" clip-rule="evenodd"
            d="M2.91683 5.00016C3.46936 5.00016 3.99927 4.78067 4.38997 4.38997C4.78067 3.99927 5.00016 3.46936 5.00016 2.91683C5.00016 2.3643 4.78067 1.83439 4.38997 1.44369C3.99927 1.05299 3.46936 0.833496 2.91683 0.833496C2.3643 0.833496 1.83439 1.05299 1.44369 1.44369C1.05299 1.83439 0.833496 2.3643 0.833496 2.91683C0.833496 3.46936 1.05299 3.99927 1.44369 4.38997C1.83439 4.78067 2.3643 5.00016 2.91683 5.00016ZM5.00016 19.1668V6.66683H0.833496V19.1668H5.00016ZM6.66683 6.66683H10.4168V8.2885C11.0135 7.50433 12.2885 6.66683 14.5835 6.66683C18.1918 6.66683 19.1668 10.2668 19.1668 12.5002V19.1668H15.0002V12.5002C15.0002 11.6668 14.5835 10.0002 12.9168 10.0002C11.7335 10.0002 10.9002 10.8402 10.4168 11.626V19.1668H6.66683V6.66683Z"
            fill="currentColor" />
    </g>
    <defs>
        <clipPath id="clip0_1_3748">
            <rect width="20" height="20" fill="white" />
        </clipPath>
    </defs>
</svg>
    