<svg viewBox="0 0 58 58" fill="none" xmlns="http://www.w3.org/2000/svg">
    <path
        d="M57.9517 4.39261C57.8829 3.26143 57.4026 2.19453 56.6012 1.39319C55.7999 0.591855 54.733 0.111499 53.6018 0.0427574C49.9537 -0.174735 40.6306 0.158753 32.8936 7.89279L31.5162 9.28764H14.601C13.9894 9.2842 13.3832 9.4024 12.8176 9.6354C12.2521 9.86839 11.7385 10.2115 11.3068 10.6448L1.36009 20.5973C0.750094 21.2068 0.322053 21.9744 0.124008 22.8137C-0.0740368 23.653 -0.0342468 24.5309 0.238913 25.3489C0.512072 26.1669 1.00779 26.8925 1.67043 27.4444C2.33308 27.9964 3.13642 28.3527 3.9903 28.4734L15.1462 30.0306L27.9667 42.8511L29.5239 54.0128C29.6437 54.8667 29.9999 55.6702 30.5523 56.3323C31.1047 56.9943 31.8314 57.4887 32.65 57.7595C33.1268 57.9188 33.6262 58 34.129 58.0002C34.7377 58.0013 35.3406 57.882 35.903 57.6491C36.4654 57.4161 36.9762 57.0742 37.4059 56.643L47.3583 46.6964C47.7916 46.2646 48.1347 45.7511 48.3677 45.1855C48.6007 44.62 48.7189 44.0137 48.7155 43.4021V26.487L50.0987 25.1037C57.8357 17.3668 58.1692 8.04358 57.9517 4.39261ZM14.601 13.9275H26.8763L15.413 25.3879L4.63698 23.8857L14.601 13.9275ZM36.1792 11.1871C38.4084 8.94411 41.0906 7.20263 44.0466 6.07895C47.0025 4.95528 50.1642 4.47527 53.3205 4.671C53.5238 7.82893 53.0488 10.9938 51.9274 13.9529C50.8059 16.912 49.0641 19.5968 46.8189 21.8268L30.1561 38.4838L19.5193 27.847L36.1792 11.1871ZM44.0756 43.4021L34.1203 53.3661L32.6152 42.5872L44.0756 31.1268V43.4021ZM22.57 46.157C21.265 49.0163 16.9007 55.6861 4.63698 55.6861C4.0217 55.6861 3.43162 55.4416 2.99655 55.0066C2.56148 54.5715 2.31706 53.9814 2.31706 53.3661C2.31706 41.1025 8.98683 36.7381 11.8461 35.4302C12.1234 35.3038 12.4228 35.2332 12.7273 35.2225C13.0318 35.2118 13.3355 35.2612 13.6209 35.3678C13.9064 35.4744 14.168 35.6363 14.3909 35.844C14.6138 36.0518 14.7936 36.3014 14.92 36.5786C15.0465 36.8558 15.1171 37.1553 15.1278 37.4598C15.1385 37.7643 15.0891 38.068 14.9825 38.3534C14.8758 38.6388 14.714 38.9005 14.5063 39.1234C14.2985 39.3463 14.0489 39.5261 13.7717 39.6525C11.907 40.5022 7.79207 43.2368 7.0671 50.936C14.7663 50.211 17.5067 46.0961 18.3506 44.2314C18.477 43.9542 18.6568 43.7046 18.8797 43.4968C19.1027 43.2891 19.3643 43.1273 19.6497 43.0206C19.9352 42.914 20.2388 42.8646 20.5433 42.8754C20.8478 42.8861 21.1473 42.9567 21.4245 43.0831C21.7017 43.2095 21.9514 43.3893 22.1591 43.6122C22.3669 43.8351 22.5287 44.0968 22.6353 44.3822C22.7419 44.6676 22.7913 44.9713 22.7806 45.2758C22.7699 45.5803 22.6993 45.8797 22.5729 46.157H22.57Z"
        fill="url(#paint0_linear_1_6797)" />
    <defs>
        <linearGradient id="paint0_linear_1_6797" x1="28.9972" y1="0" x2="28.9972" y2="58.0002"
            gradientUnits="userSpaceOnUse">
            <stop stop-color="#00A1FC" />
            <stop offset="0.485577" stop-color="#09689D" />
            <stop offset="1" stop-color="#132B39" />
        </linearGradient>
    </defs>
</svg>